<svg id="Camada_1" data-name="Camada 1" xmlns="http://www.w3.org/2000/svg" viewBox="0 0 395.81 69.71"><defs><style>.cls-1{fill:none;}.cls-2{fill:#5c6c69;}.cls-3{fill:#f8f9f9;}.cls-4{fill:#fff;}.cls-5{font-size:37.25px;fill:#515453;stroke:#515453;stroke-miterlimit:10;stroke-width:0.75px;font-family:Swiss721BT-Black, Swis721 Blk BT;font-weight:800;}.cls-6{letter-spacing:-0.05em;}</style></defs><rect class="cls-1" x="328.08" y="462.86" width="43.84" height="43.84" transform="translate(-559.28 -64.31) rotate(-45)"/><rect class="cls-2" x="328.08" y="462.86" width="43.84" height="43.84" rx="0.88" transform="translate(-559.28 -64.31) rotate(-45)"/><rect class="cls-2" x="328.08" y="470.86" width="43.84" height="43.84" rx="0.7" transform="translate(-564.94 -61.96) rotate(-45)"/><rect class="cls-3" x="330.2" y="464.98" width="39.6" height="39.6" transform="translate(-559.28 -64.31) rotate(-45)"/><rect class="cls-2" x="333.74" y="468.52" width="32.53" height="32.53" rx="0.91" transform="translate(-559.28 -64.31) rotate(-45)"/><rect class="cls-4" x="341.51" y="476.3" width="16.97" height="16.97" rx="0.86" transform="translate(-559.28 -64.31) rotate(-45)"/><rect class="cls-2" x="347.17" y="481.95" width="5.66" height="5.66" rx="0.66" transform="translate(-559.28 -64.31) rotate(-45)"/><text class="cls-5" transform="translate(66.15 46.45)">Eco<tspan class="cls-6" x="74.76" y="0">V</tspan><tspan x="100.03" y="0">olt Insignia</tspan></text></svg>