<svg width="14" height="14" viewBox="0 0 14 14" fill="none" xmlns="http://www.w3.org/2000/svg">
<path d="M6.9296 1.20062C8.68476 1.20062 8.89261 1.20719 9.58597 1.23881C10.0029 1.24391 10.4158 1.32046 10.8068 1.46513C11.0904 1.57449 11.3479 1.742 11.5628 1.9569C11.7777 2.1718 11.9452 2.42932 12.0545 2.71287C12.1992 3.10388 12.2758 3.51681 12.2809 3.93369C12.3122 4.62705 12.319 4.83491 12.319 6.59007C12.319 8.34523 12.3125 8.55308 12.2809 9.24645C12.2758 9.66333 12.1992 10.0763 12.0545 10.4673C11.9452 10.7508 11.7777 11.0083 11.5628 11.2232C11.3479 11.4381 11.0904 11.6056 10.8068 11.715C10.4158 11.8597 10.0029 11.9362 9.58597 11.9413C8.89293 11.9726 8.68507 11.9795 6.9296 11.9795C5.17412 11.9795 4.96627 11.9729 4.27322 11.9413C3.85634 11.9362 3.44341 11.8597 3.0524 11.715C2.76885 11.6056 2.51133 11.4381 2.29643 11.2232C2.08154 11.0083 1.91402 10.7508 1.80466 10.4673C1.65999 10.0763 1.58344 9.66333 1.57834 9.24645C1.54704 8.55308 1.54015 8.34523 1.54015 6.59007C1.54015 4.83491 1.54673 4.62705 1.57834 3.93369C1.58344 3.51681 1.65999 3.10388 1.80466 2.71287C1.91402 2.42932 2.08154 2.1718 2.29643 1.9569C2.51133 1.742 2.76885 1.57449 3.0524 1.46513C3.44341 1.32046 3.85634 1.24391 4.27322 1.23881C4.96658 1.20751 5.17444 1.20062 6.9296 1.20062ZM6.9296 0.0161133C5.14532 0.0161133 4.92057 0.023626 4.21938 0.0555551C3.67378 0.0664072 3.13398 0.169711 2.62292 0.361073C2.18452 0.526249 1.78744 0.785093 1.45939 1.11955C1.12463 1.44772 0.865569 1.84503 0.700291 2.28371C0.508929 2.79476 0.405625 3.33457 0.394773 3.88016C0.36347 4.58073 0.355957 4.80548 0.355957 6.58976C0.355957 8.37403 0.36347 8.59879 0.395399 9.29997C0.406251 9.84557 0.509555 10.3854 0.700917 10.8964C0.866012 11.3351 1.12486 11.7324 1.45939 12.0606C1.78762 12.3951 2.18493 12.654 2.62355 12.8191C3.1346 13.0104 3.67441 13.1137 4.22001 13.1246C4.92119 13.1559 5.14501 13.164 6.93022 13.164C8.71544 13.164 8.93925 13.1565 9.64044 13.1246C10.186 13.1137 10.7258 13.0104 11.2369 12.8191C11.6734 12.6498 12.0699 12.3914 12.4008 12.0602C12.7318 11.7291 12.99 11.3325 13.1589 10.8958C13.3503 10.3848 13.4536 9.84494 13.4644 9.29935C13.4957 8.59879 13.5032 8.37403 13.5032 6.58976C13.5032 4.80548 13.4957 4.58073 13.4638 3.87954C13.4529 3.33394 13.3496 2.79413 13.1583 2.28308C12.9932 1.84446 12.7343 1.44715 12.3998 1.11892C12.0716 0.784391 11.6743 0.525542 11.2356 0.360447C10.7246 0.169085 10.1848 0.0657812 9.63919 0.0549291C8.93863 0.023626 8.71387 0.0161133 6.9296 0.0161133Z" fill="white"/>
<path d="M6.92797 3.21777C6.26031 3.21777 5.60765 3.41576 5.05252 3.78669C4.49738 4.15761 4.06471 4.68483 3.80921 5.30166C3.55371 5.91849 3.48686 6.59724 3.61711 7.25206C3.74736 7.90689 4.06887 8.50839 4.54097 8.98049C5.01308 9.45259 5.61457 9.7741 6.2694 9.90435C6.92422 10.0346 7.60297 9.96775 8.2198 9.71225C8.83663 9.45675 9.36385 9.02408 9.73478 8.46895C10.1057 7.91381 10.3037 7.26115 10.3037 6.59349C10.3037 5.6982 9.94803 4.83957 9.31496 4.2065C8.68189 3.57343 7.82327 3.21777 6.92797 3.21777ZM6.92797 8.78471C6.49459 8.78471 6.07094 8.6562 5.7106 8.41542C5.35025 8.17465 5.0694 7.83243 4.90355 7.43204C4.7377 7.03164 4.69431 6.59106 4.77886 6.16601C4.86341 5.74096 5.0721 5.35052 5.37855 5.04407C5.68499 4.73763 6.07543 4.52893 6.50048 4.44438C6.92554 4.35984 7.36612 4.40323 7.76651 4.56908C8.1669 4.73492 8.50912 5.01578 8.7499 5.37612C8.99067 5.73646 9.11918 6.16011 9.11918 6.59349C9.11918 7.17464 8.88832 7.73198 8.47739 8.14292C8.06646 8.55385 7.50911 8.78471 6.92797 8.78471Z" fill="white"/>
<path d="M10.4485 3.87113C10.8842 3.87113 11.2373 3.51796 11.2373 3.08229C11.2373 2.64663 10.8842 2.29346 10.4485 2.29346C10.0128 2.29346 9.65967 2.64663 9.65967 3.08229C9.65967 3.51796 10.0128 3.87113 10.4485 3.87113Z" fill="white"/>
</svg>
