<svg width="12" height="10" viewBox="0 0 12 10" fill="none" xmlns="http://www.w3.org/2000/svg">
<path d="M11.6009 1.66132C11.1943 1.84204 10.7651 1.95499 10.3133 2.02276C10.7651 1.75168 11.1265 1.32247 11.2847 0.802904C10.8555 1.05139 10.3811 1.23211 9.86152 1.34506C9.4549 0.915853 8.86756 0.644775 8.23505 0.644775C7.0152 0.644775 6.02124 1.63873 6.02124 2.85858C6.02124 3.0393 6.04383 3.19743 6.08901 3.35556C4.25924 3.2652 2.61018 2.38419 1.50328 1.0288C1.32256 1.36765 1.20961 1.72909 1.20961 2.1357C1.20961 2.90376 1.59364 3.58145 2.20356 3.98807C1.84212 3.96548 1.50328 3.87512 1.18702 3.71699V3.73958C1.18702 4.82389 1.95507 5.72749 2.97162 5.9308C2.7909 5.97598 2.58759 5.99856 2.38428 5.99856C2.24874 5.99856 2.09061 5.97598 1.95507 5.95339C2.24874 6.83439 3.06198 7.48949 4.03334 7.48949C3.26528 8.07683 2.31651 8.43827 1.27738 8.43827C1.09666 8.43827 0.915941 8.43827 0.757812 8.41568C1.75177 9.04819 2.90385 9.40963 4.16888 9.40963C8.25764 9.40963 10.494 6.02115 10.494 3.08448C10.494 2.99412 10.494 2.88117 10.494 2.79081C10.9232 2.49714 11.3073 2.11311 11.6009 1.66132Z" fill="white"/>
</svg>
