<svg width="13" height="13" viewBox="0 0 13 13" fill="none" xmlns="http://www.w3.org/2000/svg">
<path fill-rule="evenodd" clip-rule="evenodd" d="M6.70603 0.0161133C3.22139 0.0161133 0.417969 2.81954 0.417969 6.30417C0.417969 9.08139 2.22579 11.4394 4.71481 12.2778C5.02921 12.3302 5.13401 12.1468 5.13401 11.9634C5.13401 11.8062 5.13401 11.4132 5.13401 10.8892C3.3786 11.2822 3.01179 10.0508 3.01179 10.0508C2.72359 9.3172 2.30439 9.13379 2.30439 9.13379C1.72798 8.74079 2.35679 8.74079 2.35679 8.74079C2.98559 8.79319 3.3262 9.3958 3.3262 9.3958C3.8764 10.3652 4.79341 10.077 5.16021 9.9198C5.21261 9.5006 5.36981 9.2386 5.55322 9.08139C4.1646 8.92419 2.69739 8.37399 2.69739 5.96357C2.69739 5.28236 2.93319 4.70595 3.3524 4.28675C3.29999 4.12955 3.06419 3.50074 3.4048 2.60994C3.4048 2.60994 3.9288 2.45273 5.13401 3.26494C5.63182 3.13394 6.18202 3.05534 6.70603 3.05534C7.23003 3.05534 7.78024 3.13394 8.27804 3.26494C9.48325 2.45273 10.0073 2.60994 10.0073 2.60994C10.3479 3.47454 10.1383 4.10335 10.0597 4.28675C10.4527 4.73215 10.7147 5.28236 10.7147 5.96357C10.7147 8.37399 9.24745 8.89799 7.83264 9.05519C8.06844 9.2386 8.25184 9.6316 8.25184 10.208C8.25184 11.0464 8.25184 11.7276 8.25184 11.9372C8.25184 12.0944 8.35664 12.304 8.69724 12.2516C11.1863 11.4394 12.9941 9.08139 12.9941 6.30417C12.9941 2.81954 10.1907 0.0161133 6.70603 0.0161133Z" fill="white"/>
</svg>
